<svg 
          width="1280" 
          height="111" fill="none" 
          xmlns="http://www.w3.org/2000/svg">
          <path d="M 0 44.4 L 42.666666666666664 53.28 C 85.33333333333333 62.16 170.66666666666669 79.92 256 75.48 C 341.3333333333333 71.04 426.6666666666667 44.4 512 26.64 C 597.3333333333334 8.880000000000003 682.6666666666666 0 768 0 C 853.3333333333334 0 938.6666666666666 8.879999999999999 1024 24.419999999999998 C 1109.3333333333333 39.959999999999994 1194.6666666666665 62.160000000000004 1237.3333333333333 73.26 L 1280 84.36 L 1280 111 L 1237.3333333333333 111 C 1194.6666666666665 111 1109.3333333333333 111 1024 111 C 938.6666666666666 111 853.3333333333334 111 768 111 C 682.6666666666666 111 597.3333333333334 111 512 111 C 426.6666666666667 111 341.3333333333333 111 256 111 C 170.66666666666669 111 85.33333333333333 111 42.666666666666664 111 L 0 111 L 0 44.4 Z" fill="rgb(34.00000177323818,73.00001844763756,87.00000241398811)"/>
        </svg>