<svg 
          width="1280" 
          height="111" fill="none" 
          xmlns="http://www.w3.org/2000/svg">
          <path d="M 0 0 L 53 4.170520231213873 C 107 8.341040462427745 213 16.68208092485549 320 30.797687861271676 C 427 45.23410404624278 533 65.76589595375722 640 69.9364161849711 C 747 74.10693641618496 853 61.59537572254335 960 57.74566473988439 C 1067 53.57514450867052 1173 57.74566473988439 1227 59.67052023121387 L 1280 61.59537572254335 L 1280 110.99999999999999 L 1227 110.99999999999999 C 1173 110.99999999999999 1067 110.99999999999999 960 110.99999999999999 C 853 110.99999999999999 747 110.99999999999999 640 110.99999999999999 C 533 110.99999999999999 427 110.99999999999999 320 110.99999999999999 C 213 110.99999999999999 107 110.99999999999999 53 110.99999999999999 L 0 110.99999999999999 L 0 0 Z" fill="rgb(32.00000189244747,223.00000190734863,127.00000002980232)"/>
        </svg>